<svg xmlns="http://www.w3.org/2000/svg" width="1024" height="1024" viewBox="0 0 1024 1024" version="1.1"><path d="M 468.500 37.523 C 92.978 74.864, -94.164 509.004, 137.612 805.130 C 391.467 1129.466, 909.371 999.576, 981.436 593.500 C 1035.568 288.471, 775.850 6.960, 468.500 37.523 M 477 65.093 C 357.389 74.378, 245.929 132.317, 168.640 225.384 C -123.977 577.742, 240.732 1092.296, 669.500 932.030 C 856.086 862.287, 981.289 663.639, 959.130 472.500 C 952.257 413.208, 941.053 372.861, 916.783 320 C 841.631 156.315, 659.772 50.906, 477 65.093 M 484.500 93.044 C 185.367 115.580, 2.869 431.423, 135.526 697 C 157.895 741.782, 191.360 787.871, 218.877 811.794 C 226.010 817.996, 225.614 818.074, 234.914 808.629 L 241.329 802.115 230.564 790.881 C 91.578 645.838, 76.509 432.697, 194.213 276.725 C 355.692 62.747, 670.554 63.083, 831.534 277.403 L 840.245 289 853.622 289 C 860.980 289, 867 288.777, 867 288.504 C 867 287.235, 848.344 260.516, 841.819 252.441 C 766.490 159.208, 669.282 106.194, 550.500 93.565 C 540.577 92.510, 496.233 92.160, 484.500 93.044 M 615.380 345.634 C 614.545 347.632, 604.707 373.620, 593.518 403.384 C 582.329 433.148, 569.365 467.400, 564.710 479.500 C 560.055 491.600, 553.184 509.488, 549.442 519.250 C 541.369 540.311, 542.246 539.868, 537.555 525.250 C 535.481 518.788, 525.508 488.234, 515.392 457.353 C 505.276 426.472, 497 400.709, 497 400.103 C 497 399.369, 500.515 399, 507.500 399 L 518 399 518 371.500 L 518 344 353 344 L 188 344 188 388 L 188 432 214.500 432 L 241 432 241 418 L 241 404 263.949 404 L 286.897 404 287.199 418.750 C 287.364 426.863, 287.378 474.788, 287.230 525.250 L 286.959 617 268.963 617 L 250.967 617 251.233 643.250 L 251.500 669.500 320.250 669.757 L 389 670.014 389 643.507 L 389 617 371.500 617 L 354 617 354 511 L 354 405 376 404.850 C 388.100 404.767, 398.563 404.655, 399.250 404.600 C 400.212 404.523, 400.415 407.779, 400.132 418.728 L 399.764 432.956 418.970 433.228 L 438.175 433.500 443.402 448 C 446.276 455.975, 450.716 468.575, 453.268 476 C 463.678 506.289, 483.998 566.037, 497.651 606.500 C 505.631 630.150, 513.787 654.112, 515.777 659.750 L 519.394 670 542.099 670 L 564.804 670 565.805 667.250 C 566.356 665.737, 570.412 654.375, 574.818 642 C 582.493 620.447, 597.014 580.369, 608.695 548.500 C 611.719 540.250, 616.665 526.300, 619.688 517.500 C 626.143 498.705, 626.219 498.590, 628.458 504.185 C 631.448 511.655, 657.288 581.187, 668.896 613 C 675.017 629.775, 682.169 649.350, 684.790 656.500 L 689.556 669.500 712.690 669.768 L 735.823 670.036 752.845 618.268 C 778.656 539.768, 806.331 454.528, 815.430 425.500 L 823.580 399.500 830.790 399.206 L 838 398.912 838 370.956 L 838 343 784 343 L 730 343 730 371 L 730 399 741.941 399 C 757.227 399, 758.551 389.004, 732.004 474 C 719.983 512.487, 714.983 528.750, 713.175 535.250 C 710.801 543.785, 710.592 543.486, 702.494 520 C 699.242 510.569, 687.293 478.143, 661.957 410 C 642.923 358.808, 637 342.753, 637 342.353 C 637 342.159, 632.477 342, 626.949 342 L 616.898 342 615.380 345.634" stroke="none" fill="#0d4048" fill-rule="evenodd"/><path d="M 477 65.093 C 357.389 74.378, 245.929 132.317, 168.640 225.384 C -123.977 577.742, 240.732 1092.296, 669.500 932.030 C 856.086 862.287, 981.289 663.639, 959.130 472.500 C 952.257 413.208, 941.053 372.861, 916.783 320 C 841.631 156.315, 659.772 50.906, 477 65.093 M 484.500 93.044 C 185.367 115.580, 2.869 431.423, 135.526 697 C 157.895 741.782, 191.360 787.871, 218.877 811.794 C 226.010 817.996, 225.614 818.074, 234.914 808.629 L 241.329 802.115 230.564 790.881 C 91.578 645.838, 76.509 432.697, 194.213 276.725 C 355.692 62.747, 670.554 63.083, 831.534 277.403 L 840.245 289 853.622 289 C 860.980 289, 867 288.777, 867 288.504 C 867 287.235, 848.344 260.516, 841.819 252.441 C 766.490 159.208, 669.282 106.194, 550.500 93.565 C 540.577 92.510, 496.233 92.160, 484.500 93.044 M 615.380 345.634 C 614.545 347.632, 604.707 373.620, 593.518 403.384 C 582.329 433.148, 569.365 467.400, 564.710 479.500 C 560.055 491.600, 553.184 509.488, 549.442 519.250 C 541.369 540.311, 542.246 539.868, 537.555 525.250 C 535.481 518.788, 525.508 488.234, 515.392 457.353 C 505.276 426.472, 497 400.709, 497 400.103 C 497 399.369, 500.515 399, 507.500 399 L 518 399 518 371.500 L 518 344 353 344 L 188 344 188 388 L 188 432 214.500 432 L 241 432 241 418 L 241 404 263.949 404 L 286.897 404 287.199 418.750 C 287.364 426.863, 287.378 474.788, 287.230 525.250 L 286.959 617 268.963 617 L 250.967 617 251.233 643.250 L 251.500 669.500 320.250 669.757 L 389 670.014 389 643.507 L 389 617 371.500 617 L 354 617 354 511 L 354 405 376 404.850 C 388.100 404.767, 398.563 404.655, 399.250 404.600 C 400.212 404.523, 400.415 407.779, 400.132 418.728 L 399.764 432.956 418.970 433.228 L 438.175 433.500 443.402 448 C 446.276 455.975, 450.716 468.575, 453.268 476 C 463.678 506.289, 483.998 566.037, 497.651 606.500 C 505.631 630.150, 513.787 654.112, 515.777 659.750 L 519.394 670 542.099 670 L 564.804 670 565.805 667.250 C 566.356 665.737, 570.412 654.375, 574.818 642 C 582.493 620.447, 597.014 580.369, 608.695 548.500 C 611.719 540.250, 616.665 526.300, 619.688 517.500 C 626.143 498.705, 626.219 498.590, 628.458 504.185 C 631.448 511.655, 657.288 581.187, 668.896 613 C 675.017 629.775, 682.169 649.350, 684.790 656.500 L 689.556 669.500 712.690 669.768 L 735.823 670.036 752.845 618.268 C 778.656 539.768, 806.331 454.528, 815.430 425.500 L 823.580 399.500 830.790 399.206 L 838 398.912 838 370.956 L 838 343 784 343 L 730 343 730 371 L 730 399 741.941 399 C 757.227 399, 758.551 389.004, 732.004 474 C 719.983 512.487, 714.983 528.750, 713.175 535.250 C 710.801 543.785, 710.592 543.486, 702.494 520 C 699.242 510.569, 687.293 478.143, 661.957 410 C 642.923 358.808, 637 342.753, 637 342.353 C 637 342.159, 632.477 342, 626.949 342 L 616.898 342 615.380 345.634" stroke="none" fill="#efebe5" fill-rule="evenodd"/></svg>